<svg xmlns="http://www.w3.org/2000/svg" xmlns:xlink="http://www.w3.org/1999/xlink" width="1800" height="980" viewBox="0 0 1800 980" role="img" aria-labelledby="title desc">
<title id="title">KCD2 layered scene sampling</title><desc id="desc">Four-panel method figure showing boundary poses, a convex hull, five-layer point packing, and multi-view orientation allocation using committed KCD2 scan-plan data.</desc>

<defs>
  <marker id="arrow-blue" markerWidth="10" markerHeight="10" refX="8" refY="5" orient="auto"><path d="M0,0 L10,5 L0,10 z" fill="#0A7EAA"/></marker>
  <marker id="arrow-cyan" markerWidth="10" markerHeight="10" refX="8" refY="5" orient="auto"><path d="M0,0 L10,5 L0,10 z" fill="#41BCE0"/></marker>
  <marker id="arrow-gray" markerWidth="10" markerHeight="10" refX="8" refY="5" orient="auto"><path d="M0,0 L10,5 L0,10 z" fill="#72849A"/></marker>
  <linearGradient id="teaser-shade" x1="0" y1="0" x2="0" y2="1"><stop offset="0" stop-color="#091827" stop-opacity="0.04"/><stop offset="1" stop-color="#091827" stop-opacity="0.76"/></linearGradient>
  <linearGradient id="blue-flow" x1="0" y1="0" x2="1" y2="0"><stop offset="0" stop-color="#0B7FA9"/><stop offset="1" stop-color="#45C2E4"/></linearGradient>
  <filter id="shadow" x="-20%" y="-20%" width="140%" height="140%"><feDropShadow dx="0" dy="8" stdDeviation="12" flood-color="#0B263A" flood-opacity="0.22"/></filter>
  
</defs>
<rect x="0" y="0" width="1800" height="980" fill="#FFFFFF" stroke="none" stroke-width="1" rx="0"/><text x="70" y="58" font-size="18" fill="#0A7EAA" font-weight="700" text-anchor="start" font-family="Arial" letter-spacing="2.4">FIGURE 04 / LAYERED SCENE SAMPLING</text><text x="70" y="104" font-size="40" fill="#13233A" font-weight="700" text-anchor="start" font-family="Times New Roman">From Sparse Boundary Poses to a Multi-View Scan Plan</text><text x="70" y="139" font-size="20" fill="#607189" font-weight="400" text-anchor="start" font-family="Arial">The KCD2 Scene 1 plan uses a convex-hull model, five vertical layers, and 22 orientations per retained spatial point.</text><line x1="70" y1="162" x2="1730" y2="162" stroke="#D5E0E9" stroke-width="1.5" fill="none"/><text x="70" y="208" font-size="17" fill="#0A7EAA" font-weight="700" text-anchor="start" font-family="Arial">(a)</text><text x="104" y="208" font-size="22" fill="#13233A" font-weight="700" text-anchor="start" font-family="Times New Roman">Boundary acquisition</text><rect x="70" y="228" width="388" height="570" fill="#FFFFFF" stroke="#D5E0E9" stroke-width="1.5" rx="16"/><line x1="466" y1="514" x2="486" y2="514" stroke="#0A7EAA" stroke-width="2.5" marker-end="url(#arrow-blue)" fill="none"/><text x="492" y="208" font-size="17" fill="#0A7EAA" font-weight="700" text-anchor="start" font-family="Arial">(b)</text><text x="526" y="208" font-size="22" fill="#13233A" font-weight="700" text-anchor="start" font-family="Times New Roman">Convex-hull space</text><rect x="492" y="228" width="388" height="570" fill="#FFFFFF" stroke="#D5E0E9" stroke-width="1.5" rx="16"/><line x1="888" y1="514" x2="908" y2="514" stroke="#0A7EAA" stroke-width="2.5" marker-end="url(#arrow-blue)" fill="none"/><text x="914" y="208" font-size="17" fill="#0A7EAA" font-weight="700" text-anchor="start" font-family="Arial">(c)</text><text x="948" y="208" font-size="22" fill="#13233A" font-weight="700" text-anchor="start" font-family="Times New Roman">Five-layer packing</text><rect x="914" y="228" width="388" height="570" fill="#FFFFFF" stroke="#D5E0E9" stroke-width="1.5" rx="16"/><line x1="1310" y1="514" x2="1330" y2="514" stroke="#0A7EAA" stroke-width="2.5" marker-end="url(#arrow-blue)" fill="none"/><text x="1336" y="208" font-size="17" fill="#0A7EAA" font-weight="700" text-anchor="start" font-family="Arial">(d)</text><text x="1370" y="208" font-size="22" fill="#13233A" font-weight="700" text-anchor="start" font-family="Times New Roman">Multi-view output</text><rect x="1336" y="228" width="388" height="570" fill="#FFFFFF" stroke="#D5E0E9" stroke-width="1.5" rx="16"/><line x1="366.27516623135097" y1="493.95471915278966" x2="320.9795661190508" y2="510.1588884997248" stroke="#AFC6D3" stroke-width="1.2" opacity="0.8" fill="none"/><line x1="320.9795661190508" y1="510.1588884997248" x2="312.82798289662844" y2="549.1884717875075" stroke="#AFC6D3" stroke-width="1.2" opacity="0.8" fill="none"/><line x1="312.82798289662844" y1="549.1884717875075" x2="324.51327810828354" y2="549.890623337843" stroke="#AFC6D3" stroke-width="1.2" opacity="0.8" fill="none"/><line x1="324.51327810828354" y1="549.890623337843" x2="310.22162362906414" y2="504.80675890432025" stroke="#AFC6D3" stroke-width="1.2" opacity="0.8" fill="none"/><line x1="310.22162362906414" y1="504.80675890432025" x2="225.26832686357147" y2="467.63109972594725" stroke="#AFC6D3" stroke-width="1.2" opacity="0.8" fill="none"/><line x1="225.26832686357147" y1="467.63109972594725" x2="125.49411877777024" y2="451.91911452689465" stroke="#AFC6D3" stroke-width="1.2" opacity="0.8" fill="none"/><line x1="125.49411877777024" y1="451.91911452689465" x2="118.86595898539223" y2="484.2584193912985" stroke="#AFC6D3" stroke-width="1.2" opacity="0.8" fill="none"/><line x1="118.86595898539223" y1="484.2584193912985" x2="125.81587833802772" y2="466.9671805439263" stroke="#AFC6D3" stroke-width="1.2" opacity="0.8" fill="none"/><line x1="125.81587833802772" y1="466.9671805439263" x2="121.485844835721" y2="410.3491871226505" stroke="#AFC6D3" stroke-width="1.2" opacity="0.8" fill="none"/><line x1="121.485844835721" y1="410.3491871226505" x2="130.59870918459018" y2="412.8182315613718" stroke="#AFC6D3" stroke-width="1.2" opacity="0.8" fill="none"/><line x1="130.59870918459018" y1="412.8182315613718" x2="214.56465745160577" y2="431.2574933920215" stroke="#AFC6D3" stroke-width="1.2" opacity="0.8" fill="none"/><line x1="214.56465745160577" y1="431.2574933920215" x2="222.06085943382283" y2="460.83051080930704" stroke="#AFC6D3" stroke-width="1.2" opacity="0.8" fill="none"/><line x1="222.06085943382283" y1="460.83051080930704" x2="241.20945111795982" y2="439.80781333938" stroke="#AFC6D3" stroke-width="1.2" opacity="0.8" fill="none"/><line x1="241.20945111795982" y1="439.80781333938" x2="241.08847617272355" y2="375.54316183951306" stroke="#AFC6D3" stroke-width="1.2" opacity="0.8" fill="none"/><line x1="241.08847617272355" y1="375.54316183951306" x2="245.23760429721483" y2="373.5292647446618" stroke="#AFC6D3" stroke-width="1.2" opacity="0.8" fill="none"/><line x1="245.23760429721483" y1="373.5292647446618" x2="261.6075879835" y2="365.93632878168887" stroke="#AFC6D3" stroke-width="1.2" opacity="0.8" fill="none"/><line x1="261.6075879835" y1="365.93632878168887" x2="291.1670504549216" y2="355.8016030885614" stroke="#AFC6D3" stroke-width="1.2" opacity="0.8" fill="none"/><line x1="291.1670504549216" y1="355.8016030885614" x2="287.60194879031087" y2="393.8967372174181" stroke="#AFC6D3" stroke-width="1.2" opacity="0.8" fill="none"/><line x1="287.60194879031087" y1="393.8967372174181" x2="298.77937167441587" y2="397.79122111646376" stroke="#AFC6D3" stroke-width="1.2" opacity="0.8" fill="none"/><line x1="298.77937167441587" y1="397.79122111646376" x2="306.4034325111863" y2="401.518526412206" stroke="#AFC6D3" stroke-width="1.2" opacity="0.8" fill="none"/><line x1="306.4034325111863" y1="401.518526412206" x2="313.98198040715874" y2="312.0" stroke="#AFC6D3" stroke-width="1.2" opacity="0.8" fill="none"/><line x1="313.98198040715874" y1="312.0" x2="346.6728076868442" y2="394.88210034483996" stroke="#AFC6D3" stroke-width="1.2" opacity="0.8" fill="none"/><line x1="346.6728076868442" y1="394.88210034483996" x2="351.24591708902807" y2="409.01778679044975" stroke="#AFC6D3" stroke-width="1.2" opacity="0.8" fill="none"/><line x1="351.24591708902807" y1="409.01778679044975" x2="351.98084046605425" y2="419.49749625454217" stroke="#AFC6D3" stroke-width="1.2" opacity="0.8" fill="none"/><line x1="351.98084046605425" y1="419.49749625454217" x2="352.1137915758385" y2="432.6975411661401" stroke="#AFC6D3" stroke-width="1.2" opacity="0.8" fill="none"/><line x1="352.1137915758385" y1="432.6975411661401" x2="352.526876125293" y2="443.8831507426525" stroke="#AFC6D3" stroke-width="1.2" opacity="0.8" fill="none"/><circle cx="366.27516623135097" cy="493.95471915278966" r="5.5" fill="#0A7EAA" stroke="#FFFFFF" stroke-width="1.2"/><circle cx="320.9795661190508" cy="510.1588884997248" r="5.5" fill="#0A7EAA" stroke="#FFFFFF" stroke-width="1.2"/><circle cx="312.82798289662844" cy="549.1884717875075" r="5.5" fill="#0A7EAA" stroke="#FFFFFF" stroke-width="1.2"/><circle cx="324.51327810828354" cy="549.890623337843" r="5.5" fill="#0A7EAA" stroke="#FFFFFF" stroke-width="1.2"/><circle cx="310.22162362906414" cy="504.80675890432025" r="5.5" fill="#0A7EAA" stroke="#FFFFFF" stroke-width="1.2"/><circle cx="225.26832686357147" cy="467.63109972594725" r="5.5" fill="#0A7EAA" stroke="#FFFFFF" stroke-width="1.2"/><circle cx="125.49411877777024" cy="451.91911452689465" r="5.5" fill="#0A7EAA" stroke="#FFFFFF" stroke-width="1.2"/><circle cx="118.86595898539223" cy="484.2584193912985" r="5.5" fill="#0A7EAA" stroke="#FFFFFF" stroke-width="1.2"/><circle cx="125.81587833802772" cy="466.9671805439263" r="5.5" fill="#0A7EAA" stroke="#FFFFFF" stroke-width="1.2"/><circle cx="121.485844835721" cy="410.3491871226505" r="5.5" fill="#0A7EAA" stroke="#FFFFFF" stroke-width="1.2"/><circle cx="130.59870918459018" cy="412.8182315613718" r="5.5" fill="#0A7EAA" stroke="#FFFFFF" stroke-width="1.2"/><circle cx="214.56465745160577" cy="431.2574933920215" r="5.5" fill="#0A7EAA" stroke="#FFFFFF" stroke-width="1.2"/><circle cx="222.06085943382283" cy="460.83051080930704" r="5.5" fill="#0A7EAA" stroke="#FFFFFF" stroke-width="1.2"/><circle cx="241.20945111795982" cy="439.80781333938" r="5.5" fill="#0A7EAA" stroke="#FFFFFF" stroke-width="1.2"/><circle cx="241.08847617272355" cy="375.54316183951306" r="5.5" fill="#0A7EAA" stroke="#FFFFFF" stroke-width="1.2"/><circle cx="245.23760429721483" cy="373.5292647446618" r="5.5" fill="#0A7EAA" stroke="#FFFFFF" stroke-width="1.2"/><circle cx="261.6075879835" cy="365.93632878168887" r="5.5" fill="#0A7EAA" stroke="#FFFFFF" stroke-width="1.2"/><circle cx="291.1670504549216" cy="355.8016030885614" r="5.5" fill="#0A7EAA" stroke="#FFFFFF" stroke-width="1.2"/><circle cx="287.60194879031087" cy="393.8967372174181" r="5.5" fill="#0A7EAA" stroke="#FFFFFF" stroke-width="1.2"/><circle cx="298.77937167441587" cy="397.79122111646376" r="5.5" fill="#0A7EAA" stroke="#FFFFFF" stroke-width="1.2"/><circle cx="306.4034325111863" cy="401.518526412206" r="5.5" fill="#0A7EAA" stroke="#FFFFFF" stroke-width="1.2"/><circle cx="313.98198040715874" cy="312.0" r="5.5" fill="#0A7EAA" stroke="#FFFFFF" stroke-width="1.2"/><circle cx="346.6728076868442" cy="394.88210034483996" r="5.5" fill="#0A7EAA" stroke="#FFFFFF" stroke-width="1.2"/><circle cx="351.24591708902807" cy="409.01778679044975" r="5.5" fill="#0A7EAA" stroke="#FFFFFF" stroke-width="1.2"/><circle cx="351.98084046605425" cy="419.49749625454217" r="5.5" fill="#0A7EAA" stroke="#FFFFFF" stroke-width="1.2"/><circle cx="352.1137915758385" cy="432.6975411661401" r="5.5" fill="#0A7EAA" stroke="#FFFFFF" stroke-width="1.2"/><circle cx="352.526876125293" cy="443.8831507426525" r="5.5" fill="#0A7EAA" stroke="#FFFFFF" stroke-width="1.2"/><g transform="translate(174 620) scale(0.55)"><rect x="-20" y="-13" width="40" height="26" fill="#FFFFFF" stroke="#2D9D78" stroke-width="2" rx="4"/><circle cx="0" cy="0" r="6" fill="none" stroke="#2D9D78" stroke-width="2"/><line x1="20" y1="-10" x2="66" y2="-32" stroke="#2D9D78" stroke-width="2" fill="none"/><line x1="20" y1="10" x2="66" y2="32" stroke="#2D9D78" stroke-width="2" fill="none"/><line x1="66" y1="-32" x2="66" y2="32" stroke="#2D9D78" stroke-width="2" fill="none"/><line x1="20" y1="0" x2="66" y2="0" stroke="#2D9D78" stroke-width="1" stroke-dasharray="5 5" opacity="0.65" fill="none"/></g><g transform="translate(317 555) scale(0.48)"><rect x="-20" y="-13" width="40" height="26" fill="#FFFFFF" stroke="#E8893D" stroke-width="2" rx="4"/><circle cx="0" cy="0" r="6" fill="none" stroke="#E8893D" stroke-width="2"/><line x1="20" y1="-10" x2="66" y2="-32" stroke="#E8893D" stroke-width="2" fill="none"/><line x1="20" y1="10" x2="66" y2="32" stroke="#E8893D" stroke-width="2" fill="none"/><line x1="66" y1="-32" x2="66" y2="32" stroke="#E8893D" stroke-width="2" fill="none"/><line x1="20" y1="0" x2="66" y2="0" stroke="#E8893D" stroke-width="1" stroke-dasharray="5 5" opacity="0.65" fill="none"/></g><text x="98" y="696" font-size="21" fill="#13233A" font-weight="700" text-anchor="start" font-family="Arial">28 records</text><text x="98" y="728" font-size="17" fill="#607189" font-weight="400" text-anchor="start" font-family="Arial">27 unique XYZ</text><text x="98" y="759" font-size="17" fill="#607189" font-weight="400" text-anchor="start" font-family="Arial">z is the vertical axis</text><polygon points="647.2683268635716,467.63109972594725 735.9819804071587,312.0 543.485844835721,410.3491871226505" fill="#BCE9F5" stroke="#0A7EAA" stroke-width="0.8" opacity="0.15"/><polygon points="713.1670504549215,355.8016030885614 735.9819804071587,312.0 543.485844835721,410.3491871226505" fill="#BCE9F5" stroke="#0A7EAA" stroke-width="0.8" opacity="0.15"/><polygon points="713.1670504549215,355.8016030885614 709.6019487903108,393.8967372174181 543.485844835721,410.3491871226505" fill="#BCE9F5" stroke="#0A7EAA" stroke-width="0.8" opacity="0.15"/><polygon points="713.1670504549215,355.8016030885614 709.6019487903108,393.8967372174181 735.9819804071587,312.0" fill="#BCE9F5" stroke="#0A7EAA" stroke-width="0.8" opacity="0.15"/><polygon points="773.2459170890281,409.01778679044975 735.9819804071587,312.0 788.275166231351,493.95471915278966" fill="#BCE9F5" stroke="#0A7EAA" stroke-width="0.8" opacity="0.15"/><polygon points="732.2216236290642,504.80675890432025 735.9819804071587,312.0 788.275166231351,493.95471915278966" fill="#BCE9F5" stroke="#0A7EAA" stroke-width="0.8" opacity="0.15"/><polygon points="732.2216236290642,504.80675890432025 647.2683268635716,467.63109972594725 735.9819804071587,312.0" fill="#BCE9F5" stroke="#0A7EAA" stroke-width="0.8" opacity="0.15"/><polygon points="547.8158783380277,466.9671805439263 709.6019487903108,393.8967372174181 746.5132781082835,549.890623337843" fill="#BCE9F5" stroke="#0A7EAA" stroke-width="0.8" opacity="0.15"/><polygon points="547.8158783380277,466.9671805439263 540.8659589853922,484.2584193912985 746.5132781082835,549.890623337843" fill="#BCE9F5" stroke="#0A7EAA" stroke-width="0.8" opacity="0.15"/><polygon points="547.8158783380277,466.9671805439263 709.6019487903108,393.8967372174181 543.485844835721,410.3491871226505" fill="#BCE9F5" stroke="#0A7EAA" stroke-width="0.8" opacity="0.15"/><polygon points="547.8158783380277,466.9671805439263 540.8659589853922,484.2584193912985 543.485844835721,410.3491871226505" fill="#BCE9F5" stroke="#0A7EAA" stroke-width="0.8" opacity="0.15"/><polygon points="768.6728076868442,394.88210034483996 709.6019487903108,393.8967372174181 735.9819804071587,312.0" fill="#BCE9F5" stroke="#0A7EAA" stroke-width="0.8" opacity="0.15"/><polygon points="768.6728076868442,394.88210034483996 773.2459170890281,409.01778679044975 735.9819804071587,312.0" fill="#BCE9F5" stroke="#0A7EAA" stroke-width="0.8" opacity="0.15"/><polygon points="774.526876125293,443.8831507426525 746.5132781082835,549.890623337843 788.275166231351,493.95471915278966" fill="#BCE9F5" stroke="#0A7EAA" stroke-width="0.8" opacity="0.15"/><polygon points="742.9795661190508,510.1588884997248 746.5132781082835,549.890623337843 788.275166231351,493.95471915278966" fill="#BCE9F5" stroke="#0A7EAA" stroke-width="0.8" opacity="0.15"/><polygon points="742.9795661190508,510.1588884997248 732.2216236290642,504.80675890432025 788.275166231351,493.95471915278966" fill="#BCE9F5" stroke="#0A7EAA" stroke-width="0.8" opacity="0.15"/><polygon points="734.8279828966284,549.1884717875075 540.8659589853922,484.2584193912985 746.5132781082835,549.890623337843" fill="#BCE9F5" stroke="#0A7EAA" stroke-width="0.8" opacity="0.15"/><polygon points="734.8279828966284,549.1884717875075 742.9795661190508,510.1588884997248 746.5132781082835,549.890623337843" fill="#BCE9F5" stroke="#0A7EAA" stroke-width="0.8" opacity="0.15"/><polygon points="734.8279828966284,549.1884717875075 742.9795661190508,510.1588884997248 732.2216236290642,504.80675890432025" fill="#BCE9F5" stroke="#0A7EAA" stroke-width="0.8" opacity="0.15"/><polygon points="773.9808404660542,419.49749625454217 773.2459170890281,409.01778679044975 788.275166231351,493.95471915278966" fill="#BCE9F5" stroke="#0A7EAA" stroke-width="0.8" opacity="0.15"/><polygon points="773.9808404660542,419.49749625454217 774.526876125293,443.8831507426525 788.275166231351,493.95471915278966" fill="#BCE9F5" stroke="#0A7EAA" stroke-width="0.8" opacity="0.15"/><polygon points="773.9808404660542,419.49749625454217 774.526876125293,443.8831507426525 773.2459170890281,409.01778679044975" fill="#BCE9F5" stroke="#0A7EAA" stroke-width="0.8" opacity="0.15"/><polygon points="728.4034325111862,401.518526412206 774.526876125293,443.8831507426525 773.2459170890281,409.01778679044975" fill="#BCE9F5" stroke="#0A7EAA" stroke-width="0.8" opacity="0.15"/><polygon points="728.4034325111862,401.518526412206 774.526876125293,443.8831507426525 746.5132781082835,549.890623337843" fill="#BCE9F5" stroke="#0A7EAA" stroke-width="0.8" opacity="0.15"/><polygon points="547.4941187777703,451.91911452689465 732.2216236290642,504.80675890432025 647.2683268635716,467.63109972594725" fill="#BCE9F5" stroke="#0A7EAA" stroke-width="0.8" opacity="0.15"/><polygon points="547.4941187777703,451.91911452689465 734.8279828966284,549.1884717875075 732.2216236290642,504.80675890432025" fill="#BCE9F5" stroke="#0A7EAA" stroke-width="0.8" opacity="0.15"/><polygon points="547.4941187777703,451.91911452689465 734.8279828966284,549.1884717875075 540.8659589853922,484.2584193912985" fill="#BCE9F5" stroke="#0A7EAA" stroke-width="0.8" opacity="0.15"/><polygon points="547.4941187777703,451.91911452689465 647.2683268635716,467.63109972594725 543.485844835721,410.3491871226505" fill="#BCE9F5" stroke="#0A7EAA" stroke-width="0.8" opacity="0.15"/><polygon points="547.4941187777703,451.91911452689465 540.8659589853922,484.2584193912985 543.485844835721,410.3491871226505" fill="#BCE9F5" stroke="#0A7EAA" stroke-width="0.8" opacity="0.15"/><polygon points="720.7793716744159,397.79122111646376 768.6728076868442,394.88210034483996 773.2459170890281,409.01778679044975" fill="#BCE9F5" stroke="#0A7EAA" stroke-width="0.8" opacity="0.15"/><polygon points="720.7793716744159,397.79122111646376 728.4034325111862,401.518526412206 773.2459170890281,409.01778679044975" fill="#BCE9F5" stroke="#0A7EAA" stroke-width="0.8" opacity="0.15"/><polygon points="720.7793716744159,397.79122111646376 768.6728076868442,394.88210034483996 709.6019487903108,393.8967372174181" fill="#BCE9F5" stroke="#0A7EAA" stroke-width="0.8" opacity="0.15"/><polygon points="720.7793716744159,397.79122111646376 709.6019487903108,393.8967372174181 746.5132781082835,549.890623337843" fill="#BCE9F5" stroke="#0A7EAA" stroke-width="0.8" opacity="0.15"/><polygon points="720.7793716744159,397.79122111646376 728.4034325111862,401.518526412206 746.5132781082835,549.890623337843" fill="#BCE9F5" stroke="#0A7EAA" stroke-width="0.8" opacity="0.15"/><circle cx="788.275166231351" cy="493.95471915278966" r="3.4" fill="#0A7EAA" stroke="none" stroke-width="1"/><circle cx="742.9795661190508" cy="510.1588884997248" r="3.4" fill="#0A7EAA" stroke="none" stroke-width="1"/><circle cx="734.8279828966284" cy="549.1884717875075" r="3.4" fill="#0A7EAA" stroke="none" stroke-width="1"/><circle cx="746.5132781082835" cy="549.890623337843" r="3.4" fill="#0A7EAA" stroke="none" stroke-width="1"/><circle cx="732.2216236290642" cy="504.80675890432025" r="3.4" fill="#0A7EAA" stroke="none" stroke-width="1"/><circle cx="647.2683268635716" cy="467.63109972594725" r="3.4" fill="#0A7EAA" stroke="none" stroke-width="1"/><circle cx="547.4941187777703" cy="451.91911452689465" r="3.4" fill="#0A7EAA" stroke="none" stroke-width="1"/><circle cx="540.8659589853922" cy="484.2584193912985" r="3.4" fill="#0A7EAA" stroke="none" stroke-width="1"/><circle cx="547.8158783380277" cy="466.9671805439263" r="3.4" fill="#0A7EAA" stroke="none" stroke-width="1"/><circle cx="543.485844835721" cy="410.3491871226505" r="3.4" fill="#0A7EAA" stroke="none" stroke-width="1"/><circle cx="552.5987091845901" cy="412.8182315613718" r="3.4" fill="#0A7EAA" stroke="none" stroke-width="1"/><circle cx="636.5646574516057" cy="431.2574933920215" r="3.4" fill="#0A7EAA" stroke="none" stroke-width="1"/><circle cx="644.0608594338228" cy="460.83051080930704" r="3.4" fill="#0A7EAA" stroke="none" stroke-width="1"/><circle cx="663.2094511179598" cy="439.80781333938" r="3.4" fill="#0A7EAA" stroke="none" stroke-width="1"/><circle cx="663.0884761727235" cy="375.54316183951306" r="3.4" fill="#0A7EAA" stroke="none" stroke-width="1"/><circle cx="667.2376042972148" cy="373.5292647446618" r="3.4" fill="#0A7EAA" stroke="none" stroke-width="1"/><circle cx="683.6075879835" cy="365.93632878168887" r="3.4" fill="#0A7EAA" stroke="none" stroke-width="1"/><circle cx="713.1670504549215" cy="355.8016030885614" r="3.4" fill="#0A7EAA" stroke="none" stroke-width="1"/><circle cx="709.6019487903108" cy="393.8967372174181" r="3.4" fill="#0A7EAA" stroke="none" stroke-width="1"/><circle cx="720.7793716744159" cy="397.79122111646376" r="3.4" fill="#0A7EAA" stroke="none" stroke-width="1"/><circle cx="728.4034325111862" cy="401.518526412206" r="3.4" fill="#0A7EAA" stroke="none" stroke-width="1"/><circle cx="735.9819804071587" cy="312.0" r="3.4" fill="#0A7EAA" stroke="none" stroke-width="1"/><circle cx="768.6728076868442" cy="394.88210034483996" r="3.4" fill="#0A7EAA" stroke="none" stroke-width="1"/><circle cx="773.2459170890281" cy="409.01778679044975" r="3.4" fill="#0A7EAA" stroke="none" stroke-width="1"/><circle cx="773.9808404660542" cy="419.49749625454217" r="3.4" fill="#0A7EAA" stroke="none" stroke-width="1"/><circle cx="774.1137915758384" cy="432.6975411661401" r="3.4" fill="#0A7EAA" stroke="none" stroke-width="1"/><circle cx="774.526876125293" cy="443.8831507426525" r="3.4" fill="#0A7EAA" stroke="none" stroke-width="1"/><text x="520" y="696" font-size="21" fill="#13233A" font-weight="700" text-anchor="start" font-family="Arial">19 hull vertices</text><text x="520" y="728" font-size="17" fill="#607189" font-weight="400" text-anchor="start" font-family="Arial">34 triangular faces</text><text x="520" y="759" font-size="17" fill="#607189" font-weight="400" text-anchor="start" font-family="Arial">safety margin: 2.0</text><polygon points="962,345 1189,345 1251,310 1024,310" fill="#D17FB0" stroke="#D17FB0" stroke-width="1" opacity="0.12"/><circle cx="1012.3755020311731" cy="331.8498192656786" r="3.1" fill="#D17FB0" stroke="none" stroke-width="1" opacity="0.9"/><circle cx="1065.406463362603" cy="327.9499397552262" r="3.1" fill="#D17FB0" stroke="none" stroke-width="1" opacity="0.9"/><circle cx="1041.328407390921" cy="327.9499397552262" r="3.1" fill="#D17FB0" stroke="none" stroke-width="1" opacity="0.9"/><circle cx="1017.2503514192387" cy="327.9499397552262" r="3.1" fill="#D17FB0" stroke="none" stroke-width="1" opacity="0.9"/><circle cx="1046.2032567789863" cy="324.0500602447738" r="3.1" fill="#D17FB0" stroke="none" stroke-width="1" opacity="0.9"/><circle cx="1070.2813127506683" cy="324.0500602447738" r="3.1" fill="#D17FB0" stroke="none" stroke-width="1" opacity="0.9"/><circle cx="1094.3593687223504" cy="324.0500602447738" r="3.1" fill="#D17FB0" stroke="none" stroke-width="1" opacity="0.9"/><circle cx="1123.3122740820982" cy="320.1501807343214" r="3.1" fill="#D17FB0" stroke="none" stroke-width="1" opacity="0.9"/><circle cx="1099.234218110416" cy="320.1501807343214" r="3.1" fill="#D17FB0" stroke="none" stroke-width="1" opacity="0.9"/><circle cx="1128.1871234701637" cy="316.250301223869" r="3.1" fill="#D17FB0" stroke="none" stroke-width="1" opacity="0.9"/><circle cx="1152.2651794418457" cy="316.250301223869" r="3.1" fill="#D17FB0" stroke="none" stroke-width="1" opacity="0.9"/><text x="944" y="332" font-size="14" fill="#D17FB0" font-weight="700" text-anchor="start" font-family="Arial">L5</text><polygon points="962,417 1189,417 1251,382 1024,382" fill="#7868C7" stroke="#7868C7" stroke-width="1" opacity="0.12"/><circle cx="1152.2651794418457" cy="388.250301223869" r="3.1" fill="#7868C7" stroke="none" stroke-width="1" opacity="0.9"/><circle cx="1128.1871234701637" cy="388.250301223869" r="3.1" fill="#7868C7" stroke="none" stroke-width="1" opacity="0.9"/><circle cx="1075.1561621387339" cy="392.1501807343214" r="3.1" fill="#7868C7" stroke="none" stroke-width="1" opacity="0.9"/><circle cx="1099.234218110416" cy="392.1501807343214" r="3.1" fill="#7868C7" stroke="none" stroke-width="1" opacity="0.9"/><circle cx="1123.3122740820982" cy="392.1501807343214" r="3.1" fill="#7868C7" stroke="none" stroke-width="1" opacity="0.9"/><circle cx="1147.3903300537802" cy="392.1501807343214" r="3.1" fill="#7868C7" stroke="none" stroke-width="1" opacity="0.9"/><circle cx="1171.4683860254625" cy="392.1501807343214" r="3.1" fill="#7868C7" stroke="none" stroke-width="1" opacity="0.9"/><circle cx="1166.593536637397" cy="396.0500602447738" r="3.1" fill="#7868C7" stroke="none" stroke-width="1" opacity="0.9"/><circle cx="1142.5154806657147" cy="396.0500602447738" r="3.1" fill="#7868C7" stroke="none" stroke-width="1" opacity="0.9"/><circle cx="1118.4374246940326" cy="396.0500602447738" r="3.1" fill="#7868C7" stroke="none" stroke-width="1" opacity="0.9"/><circle cx="1094.3593687223504" cy="396.0500602447738" r="3.1" fill="#7868C7" stroke="none" stroke-width="1" opacity="0.9"/><circle cx="1070.2813127506683" cy="396.0500602447738" r="3.1" fill="#7868C7" stroke="none" stroke-width="1" opacity="0.9"/><circle cx="1046.2032567789863" cy="396.0500602447738" r="3.1" fill="#7868C7" stroke="none" stroke-width="1" opacity="0.9"/><circle cx="1017.2503514192387" cy="399.9499397552262" r="3.1" fill="#7868C7" stroke="none" stroke-width="1" opacity="0.9"/><circle cx="1041.328407390921" cy="399.9499397552262" r="3.1" fill="#7868C7" stroke="none" stroke-width="1" opacity="0.9"/><circle cx="1065.406463362603" cy="399.9499397552262" r="3.1" fill="#7868C7" stroke="none" stroke-width="1" opacity="0.9"/><circle cx="1089.484519334285" cy="399.9499397552262" r="3.1" fill="#7868C7" stroke="none" stroke-width="1" opacity="0.9"/><circle cx="1113.5625753059674" cy="399.9499397552262" r="3.1" fill="#7868C7" stroke="none" stroke-width="1" opacity="0.9"/><circle cx="1137.6406312776494" cy="399.9499397552262" r="3.1" fill="#7868C7" stroke="none" stroke-width="1" opacity="0.9"/><circle cx="1132.7657818895839" cy="403.8498192656786" r="3.1" fill="#7868C7" stroke="none" stroke-width="1" opacity="0.9"/><circle cx="1108.6877259179018" cy="403.8498192656786" r="3.1" fill="#7868C7" stroke="none" stroke-width="1" opacity="0.9"/><circle cx="1084.6096699462196" cy="403.8498192656786" r="3.1" fill="#7868C7" stroke="none" stroke-width="1" opacity="0.9"/><circle cx="1060.5316139745375" cy="403.8498192656786" r="3.1" fill="#7868C7" stroke="none" stroke-width="1" opacity="0.9"/><circle cx="1036.4535580028555" cy="403.8498192656786" r="3.1" fill="#7868C7" stroke="none" stroke-width="1" opacity="0.9"/><circle cx="1012.3755020311731" cy="403.8498192656786" r="3.1" fill="#7868C7" stroke="none" stroke-width="1" opacity="0.9"/><circle cx="1031.57870861479" cy="407.749698776131" r="3.1" fill="#7868C7" stroke="none" stroke-width="1" opacity="0.9"/><circle cx="1055.656764586472" cy="407.749698776131" r="3.1" fill="#7868C7" stroke="none" stroke-width="1" opacity="0.9"/><circle cx="1079.734820558154" cy="407.749698776131" r="3.1" fill="#7868C7" stroke="none" stroke-width="1" opacity="0.9"/><circle cx="1103.8128765298363" cy="407.749698776131" r="3.1" fill="#7868C7" stroke="none" stroke-width="1" opacity="0.9"/><text x="944" y="404" font-size="14" fill="#7868C7" font-weight="700" text-anchor="start" font-family="Arial">L4</text><polygon points="962,489 1189,489 1251,454 1024,454" fill="#4C83D6" stroke="#4C83D6" stroke-width="1" opacity="0.12"/><circle cx="1176.0470444448827" cy="479.749698776131" r="3.1" fill="#4C83D6" stroke="none" stroke-width="1" opacity="0.9"/><circle cx="1151.9689884732006" cy="479.749698776131" r="3.1" fill="#4C83D6" stroke="none" stroke-width="1" opacity="0.9"/><circle cx="1127.8909325015184" cy="479.749698776131" r="3.1" fill="#4C83D6" stroke="none" stroke-width="1" opacity="0.9"/><circle cx="1103.8128765298363" cy="479.749698776131" r="3.1" fill="#4C83D6" stroke="none" stroke-width="1" opacity="0.9"/><circle cx="1079.734820558154" cy="479.749698776131" r="3.1" fill="#4C83D6" stroke="none" stroke-width="1" opacity="0.9"/><circle cx="1055.656764586472" cy="479.749698776131" r="3.1" fill="#4C83D6" stroke="none" stroke-width="1" opacity="0.9"/><circle cx="1012.3755020311731" cy="475.8498192656786" r="3.1" fill="#4C83D6" stroke="none" stroke-width="1" opacity="0.9"/><circle cx="1036.4535580028555" cy="475.8498192656786" r="3.1" fill="#4C83D6" stroke="none" stroke-width="1" opacity="0.9"/><circle cx="1060.5316139745375" cy="475.8498192656786" r="3.1" fill="#4C83D6" stroke="none" stroke-width="1" opacity="0.9"/><circle cx="1084.6096699462196" cy="475.8498192656786" r="3.1" fill="#4C83D6" stroke="none" stroke-width="1" opacity="0.9"/><circle cx="1108.6877259179018" cy="475.8498192656786" r="3.1" fill="#4C83D6" stroke="none" stroke-width="1" opacity="0.9"/><circle cx="1132.7657818895839" cy="475.8498192656786" r="3.1" fill="#4C83D6" stroke="none" stroke-width="1" opacity="0.9"/><circle cx="1156.8438378612661" cy="475.8498192656786" r="3.1" fill="#4C83D6" stroke="none" stroke-width="1" opacity="0.9"/><circle cx="1180.9218938329482" cy="475.8498192656786" r="3.1" fill="#4C83D6" stroke="none" stroke-width="1" opacity="0.9"/><circle cx="1185.7967432210137" cy="471.9499397552262" r="3.1" fill="#4C83D6" stroke="none" stroke-width="1" opacity="0.9"/><circle cx="1161.7186872493317" cy="471.9499397552262" r="3.1" fill="#4C83D6" stroke="none" stroke-width="1" opacity="0.9"/><circle cx="1137.6406312776494" cy="471.9499397552262" r="3.1" fill="#4C83D6" stroke="none" stroke-width="1" opacity="0.9"/><circle cx="1113.5625753059674" cy="471.9499397552262" r="3.1" fill="#4C83D6" stroke="none" stroke-width="1" opacity="0.9"/><circle cx="1089.484519334285" cy="471.9499397552262" r="3.1" fill="#4C83D6" stroke="none" stroke-width="1" opacity="0.9"/><circle cx="1065.406463362603" cy="471.9499397552262" r="3.1" fill="#4C83D6" stroke="none" stroke-width="1" opacity="0.9"/><circle cx="1041.328407390921" cy="471.9499397552262" r="3.1" fill="#4C83D6" stroke="none" stroke-width="1" opacity="0.9"/><circle cx="1017.2503514192387" cy="471.9499397552262" r="3.1" fill="#4C83D6" stroke="none" stroke-width="1" opacity="0.9"/><circle cx="1046.2032567789863" cy="468.0500602447738" r="3.1" fill="#4C83D6" stroke="none" stroke-width="1" opacity="0.9"/><circle cx="1070.2813127506683" cy="468.0500602447738" r="3.1" fill="#4C83D6" stroke="none" stroke-width="1" opacity="0.9"/><circle cx="1094.3593687223504" cy="468.0500602447738" r="3.1" fill="#4C83D6" stroke="none" stroke-width="1" opacity="0.9"/><circle cx="1118.4374246940326" cy="468.0500602447738" r="3.1" fill="#4C83D6" stroke="none" stroke-width="1" opacity="0.9"/><circle cx="1142.5154806657147" cy="468.0500602447738" r="3.1" fill="#4C83D6" stroke="none" stroke-width="1" opacity="0.9"/><circle cx="1166.593536637397" cy="468.0500602447738" r="3.1" fill="#4C83D6" stroke="none" stroke-width="1" opacity="0.9"/><circle cx="1190.671592609079" cy="468.0500602447738" r="3.1" fill="#4C83D6" stroke="none" stroke-width="1" opacity="0.9"/><circle cx="1171.4683860254625" cy="464.1501807343214" r="3.1" fill="#4C83D6" stroke="none" stroke-width="1" opacity="0.9"/><circle cx="1147.3903300537802" cy="464.1501807343214" r="3.1" fill="#4C83D6" stroke="none" stroke-width="1" opacity="0.9"/><circle cx="1123.3122740820982" cy="464.1501807343214" r="3.1" fill="#4C83D6" stroke="none" stroke-width="1" opacity="0.9"/><circle cx="1099.234218110416" cy="464.1501807343214" r="3.1" fill="#4C83D6" stroke="none" stroke-width="1" opacity="0.9"/><circle cx="1075.1561621387339" cy="464.1501807343214" r="3.1" fill="#4C83D6" stroke="none" stroke-width="1" opacity="0.9"/><circle cx="1104.1090674984814" cy="460.250301223869" r="3.1" fill="#4C83D6" stroke="none" stroke-width="1" opacity="0.9"/><circle cx="1128.1871234701637" cy="460.250301223869" r="3.1" fill="#4C83D6" stroke="none" stroke-width="1" opacity="0.9"/><circle cx="1152.2651794418457" cy="460.250301223869" r="3.1" fill="#4C83D6" stroke="none" stroke-width="1" opacity="0.9"/><circle cx="1176.343235413528" cy="460.250301223869" r="3.1" fill="#4C83D6" stroke="none" stroke-width="1" opacity="0.9"/><text x="944" y="476" font-size="14" fill="#4C83D6" font-weight="700" text-anchor="start" font-family="Arial">L3</text><polygon points="962,561 1189,561 1251,526 1024,526" fill="#30A9C7" stroke="#30A9C7" stroke-width="1" opacity="0.12"/><circle cx="1176.343235413528" cy="532.250301223869" r="3.1" fill="#30A9C7" stroke="none" stroke-width="1" opacity="0.9"/><circle cx="1152.2651794418457" cy="532.250301223869" r="3.1" fill="#30A9C7" stroke="none" stroke-width="1" opacity="0.9"/><circle cx="1128.1871234701637" cy="532.250301223869" r="3.1" fill="#30A9C7" stroke="none" stroke-width="1" opacity="0.9"/><circle cx="1104.1090674984814" cy="532.250301223869" r="3.1" fill="#30A9C7" stroke="none" stroke-width="1" opacity="0.9"/><circle cx="1075.1561621387339" cy="536.1501807343215" r="3.1" fill="#30A9C7" stroke="none" stroke-width="1" opacity="0.9"/><circle cx="1099.234218110416" cy="536.1501807343215" r="3.1" fill="#30A9C7" stroke="none" stroke-width="1" opacity="0.9"/><circle cx="1123.3122740820982" cy="536.1501807343215" r="3.1" fill="#30A9C7" stroke="none" stroke-width="1" opacity="0.9"/><circle cx="1147.3903300537802" cy="536.1501807343215" r="3.1" fill="#30A9C7" stroke="none" stroke-width="1" opacity="0.9"/><circle cx="1171.4683860254625" cy="536.1501807343215" r="3.1" fill="#30A9C7" stroke="none" stroke-width="1" opacity="0.9"/><circle cx="1190.671592609079" cy="540.0500602447738" r="3.1" fill="#30A9C7" stroke="none" stroke-width="1" opacity="0.9"/><circle cx="1166.593536637397" cy="540.0500602447738" r="3.1" fill="#30A9C7" stroke="none" stroke-width="1" opacity="0.9"/><circle cx="1142.5154806657147" cy="540.0500602447738" r="3.1" fill="#30A9C7" stroke="none" stroke-width="1" opacity="0.9"/><circle cx="1118.4374246940326" cy="540.0500602447738" r="3.1" fill="#30A9C7" stroke="none" stroke-width="1" opacity="0.9"/><circle cx="1094.3593687223504" cy="540.0500602447738" r="3.1" fill="#30A9C7" stroke="none" stroke-width="1" opacity="0.9"/><circle cx="1070.2813127506683" cy="540.0500602447738" r="3.1" fill="#30A9C7" stroke="none" stroke-width="1" opacity="0.9"/><circle cx="1046.2032567789863" cy="540.0500602447738" r="3.1" fill="#30A9C7" stroke="none" stroke-width="1" opacity="0.9"/><circle cx="1065.406463362603" cy="543.9499397552262" r="3.1" fill="#30A9C7" stroke="none" stroke-width="1" opacity="0.9"/><circle cx="1089.484519334285" cy="543.9499397552262" r="3.1" fill="#30A9C7" stroke="none" stroke-width="1" opacity="0.9"/><circle cx="1113.5625753059674" cy="543.9499397552262" r="3.1" fill="#30A9C7" stroke="none" stroke-width="1" opacity="0.9"/><circle cx="1137.6406312776494" cy="543.9499397552262" r="3.1" fill="#30A9C7" stroke="none" stroke-width="1" opacity="0.9"/><circle cx="1161.7186872493317" cy="543.9499397552262" r="3.1" fill="#30A9C7" stroke="none" stroke-width="1" opacity="0.9"/><circle cx="1185.7967432210137" cy="543.9499397552262" r="3.1" fill="#30A9C7" stroke="none" stroke-width="1" opacity="0.9"/><circle cx="1209.874799192696" cy="543.9499397552262" r="3.1" fill="#30A9C7" stroke="none" stroke-width="1" opacity="0.9"/><circle cx="1204.9999498046304" cy="547.8498192656785" r="3.1" fill="#30A9C7" stroke="none" stroke-width="1" opacity="0.9"/><circle cx="1180.9218938329482" cy="547.8498192656785" r="3.1" fill="#30A9C7" stroke="none" stroke-width="1" opacity="0.9"/><circle cx="1156.8438378612661" cy="547.8498192656785" r="3.1" fill="#30A9C7" stroke="none" stroke-width="1" opacity="0.9"/><circle cx="1132.7657818895839" cy="547.8498192656785" r="3.1" fill="#30A9C7" stroke="none" stroke-width="1" opacity="0.9"/><circle cx="1108.6877259179018" cy="547.8498192656785" r="3.1" fill="#30A9C7" stroke="none" stroke-width="1" opacity="0.9"/><circle cx="1084.6096699462196" cy="547.8498192656785" r="3.1" fill="#30A9C7" stroke="none" stroke-width="1" opacity="0.9"/><circle cx="1060.5316139745375" cy="547.8498192656785" r="3.1" fill="#30A9C7" stroke="none" stroke-width="1" opacity="0.9"/><circle cx="1079.734820558154" cy="551.749698776131" r="3.1" fill="#30A9C7" stroke="none" stroke-width="1" opacity="0.9"/><circle cx="1103.8128765298363" cy="551.749698776131" r="3.1" fill="#30A9C7" stroke="none" stroke-width="1" opacity="0.9"/><circle cx="1127.8909325015184" cy="551.749698776131" r="3.1" fill="#30A9C7" stroke="none" stroke-width="1" opacity="0.9"/><circle cx="1151.9689884732006" cy="551.749698776131" r="3.1" fill="#30A9C7" stroke="none" stroke-width="1" opacity="0.9"/><circle cx="1176.0470444448827" cy="551.749698776131" r="3.1" fill="#30A9C7" stroke="none" stroke-width="1" opacity="0.9"/><circle cx="1200.125100416565" cy="551.749698776131" r="3.1" fill="#30A9C7" stroke="none" stroke-width="1" opacity="0.9"/><text x="944" y="548" font-size="14" fill="#30A9C7" font-weight="700" text-anchor="start" font-family="Arial">L2</text><polygon points="962,633 1189,633 1251,598 1024,598" fill="#2D9D78" stroke="#2D9D78" stroke-width="1" opacity="0.12"/><circle cx="1200.125100416565" cy="623.749698776131" r="3.1" fill="#2D9D78" stroke="none" stroke-width="1" opacity="0.9"/><circle cx="1176.0470444448827" cy="623.749698776131" r="3.1" fill="#2D9D78" stroke="none" stroke-width="1" opacity="0.9"/><circle cx="1151.9689884732006" cy="623.749698776131" r="3.1" fill="#2D9D78" stroke="none" stroke-width="1" opacity="0.9"/><circle cx="1156.8438378612661" cy="619.8498192656785" r="3.1" fill="#2D9D78" stroke="none" stroke-width="1" opacity="0.9"/><circle cx="1180.9218938329482" cy="619.8498192656785" r="3.1" fill="#2D9D78" stroke="none" stroke-width="1" opacity="0.9"/><circle cx="1204.9999498046304" cy="619.8498192656785" r="3.1" fill="#2D9D78" stroke="none" stroke-width="1" opacity="0.9"/><circle cx="1185.7967432210137" cy="615.9499397552262" r="3.1" fill="#2D9D78" stroke="none" stroke-width="1" opacity="0.9"/><circle cx="1161.7186872493317" cy="615.9499397552262" r="3.1" fill="#2D9D78" stroke="none" stroke-width="1" opacity="0.9"/><circle cx="1137.6406312776494" cy="615.9499397552262" r="3.1" fill="#2D9D78" stroke="none" stroke-width="1" opacity="0.9"/><circle cx="1142.5154806657147" cy="612.0500602447738" r="3.1" fill="#2D9D78" stroke="none" stroke-width="1" opacity="0.9"/><circle cx="1166.593536637397" cy="612.0500602447738" r="3.1" fill="#2D9D78" stroke="none" stroke-width="1" opacity="0.9"/><circle cx="1190.671592609079" cy="612.0500602447738" r="3.1" fill="#2D9D78" stroke="none" stroke-width="1" opacity="0.9"/><circle cx="1171.4683860254625" cy="608.1501807343215" r="3.1" fill="#2D9D78" stroke="none" stroke-width="1" opacity="0.9"/><circle cx="1147.3903300537802" cy="608.1501807343215" r="3.1" fill="#2D9D78" stroke="none" stroke-width="1" opacity="0.9"/><circle cx="1123.3122740820982" cy="608.1501807343215" r="3.1" fill="#2D9D78" stroke="none" stroke-width="1" opacity="0.9"/><circle cx="1128.1871234701637" cy="604.250301223869" r="3.1" fill="#2D9D78" stroke="none" stroke-width="1" opacity="0.9"/><circle cx="1152.2651794418457" cy="604.250301223869" r="3.1" fill="#2D9D78" stroke="none" stroke-width="1" opacity="0.9"/><text x="944" y="620" font-size="14" fill="#2D9D78" font-weight="700" text-anchor="start" font-family="Arial">L1</text><text x="942" y="696" font-size="21" fill="#13233A" font-weight="700" text-anchor="start" font-family="Arial">5 layers / 131 poses</text><text x="942" y="728" font-size="17" fill="#607189" font-weight="400" text-anchor="start" font-family="Arial">counts: 17, 36, 38, 29, 11</text><text x="942" y="759" font-size="17" fill="#607189" font-weight="400" text-anchor="start" font-family="Arial">serpentine layer ordering</text><circle cx="1530" cy="430" r="12" fill="#13233A" stroke="none" stroke-width="1"/><line x1="1530" y1="430" x2="1655.0" y2="430.0" stroke="#0A7EAA" stroke-width="2" marker-end="url(#arrow-blue)" opacity="0.8" fill="none"/><circle cx="1655.0" cy="430.0" r="5" fill="#0A7EAA" stroke="none" stroke-width="1"/><line x1="1530" y1="430" x2="1618.3883476483184" y2="489.39696961967" stroke="#0A7EAA" stroke-width="2" marker-end="url(#arrow-blue)" opacity="0.8" fill="none"/><circle cx="1618.3883476483184" cy="489.39696961967" r="5" fill="#0A7EAA" stroke="none" stroke-width="1"/><line x1="1530" y1="430" x2="1530.0" y2="514.0" stroke="#0A7EAA" stroke-width="2" marker-end="url(#arrow-blue)" opacity="0.8" fill="none"/><circle cx="1530.0" cy="514.0" r="5" fill="#0A7EAA" stroke="none" stroke-width="1"/><line x1="1530" y1="430" x2="1441.6116523516816" y2="489.39696961967" stroke="#0A7EAA" stroke-width="2" marker-end="url(#arrow-blue)" opacity="0.8" fill="none"/><circle cx="1441.6116523516816" cy="489.39696961967" r="5" fill="#0A7EAA" stroke="none" stroke-width="1"/><line x1="1530" y1="430" x2="1405.0" y2="430.0" stroke="#0A7EAA" stroke-width="2" marker-end="url(#arrow-blue)" opacity="0.8" fill="none"/><circle cx="1405.0" cy="430.0" r="5" fill="#0A7EAA" stroke="none" stroke-width="1"/><line x1="1530" y1="430" x2="1441.6116523516816" y2="370.60303038033" stroke="#0A7EAA" stroke-width="2" marker-end="url(#arrow-blue)" opacity="0.8" fill="none"/><circle cx="1441.6116523516816" cy="370.60303038033" r="5" fill="#0A7EAA" stroke="none" stroke-width="1"/><line x1="1530" y1="430" x2="1530.0" y2="346.0" stroke="#0A7EAA" stroke-width="2" marker-end="url(#arrow-blue)" opacity="0.8" fill="none"/><circle cx="1530.0" cy="346.0" r="5" fill="#0A7EAA" stroke="none" stroke-width="1"/><line x1="1530" y1="430" x2="1618.3883476483184" y2="370.60303038033" stroke="#0A7EAA" stroke-width="2" marker-end="url(#arrow-blue)" opacity="0.8" fill="none"/><circle cx="1618.3883476483184" cy="370.60303038033" r="5" fill="#0A7EAA" stroke="none" stroke-width="1"/><circle cx="1378" cy="572" r="5" fill="#7868C7" stroke="none" stroke-width="1"/><text x="1394" y="577" font-size="14" fill="#607189" font-weight="400" text-anchor="start" font-family="Arial">pitch +90 deg</text><circle cx="1378" cy="597" r="5" fill="#2D9D78" stroke="none" stroke-width="1"/><text x="1394" y="602" font-size="14" fill="#607189" font-weight="400" text-anchor="start" font-family="Arial">pitch +45 deg</text><circle cx="1378" cy="622" r="5" fill="#0A7EAA" stroke="none" stroke-width="1"/><text x="1394" y="627" font-size="14" fill="#607189" font-weight="400" text-anchor="start" font-family="Arial">pitch 0 deg</text><circle cx="1378" cy="647" r="5" fill="#E8893D" stroke="none" stroke-width="1"/><text x="1394" y="652" font-size="14" fill="#607189" font-weight="400" text-anchor="start" font-family="Arial">pitch -45 deg</text><circle cx="1378" cy="672" r="5" fill="#D84D4D" stroke="none" stroke-width="1"/><text x="1394" y="677" font-size="14" fill="#607189" font-weight="400" text-anchor="start" font-family="Arial">pitch -90 deg</text><rect x="1526" y="563" width="160" height="119" fill="#F4FAFD" stroke="#B8DAE6" stroke-width="1" rx="10"/><text x="1606" y="596" font-size="25" fill="#0A7EAA" font-weight="700" text-anchor="middle" font-family="Arial">22 views</text><text x="1606" y="628" font-size="15" fill="#607189" font-weight="400" text-anchor="middle" font-family="Arial">per spatial pose</text><text x="1606" y="661" font-size="15" fill="#607189" font-weight="400" text-anchor="middle" font-family="Arial">FOV 63 deg</text><text x="1364" y="721" font-size="24" fill="#13233A" font-weight="700" text-anchor="start" font-family="Arial">2,882 planned images</text><text x="1364" y="757" font-size="17" fill="#607189" font-weight="400" text-anchor="start" font-family="Arial">positions x orientations</text><rect x="70" y="835" width="1660" height="70" fill="#F4FAFD" stroke="#B9DBE6" stroke-width="1.2" rx="12"/><text x="900" y="867" font-size="22" fill="#0B6888" font-weight="700" text-anchor="middle" font-family="Arial">27 unique boundary XYZ  -&gt;  19 hull vertices  -&gt;  131 safe positions  -&gt;  2,882 explicit camera samples</text><text x="900" y="893" font-size="14" fill="#607189" font-weight="400" text-anchor="middle" font-family="Arial" font-style="italic">All counts and layer heights are read directly from scene_1_5layer_hull_plan.json.</text><line x1="70" y1="936" x2="1730" y2="936" stroke="#D5E0E9" stroke-width="1" fill="none"/><text x="70" y="963" font-size="13" fill="#71839A" font-weight="700" text-anchor="start" font-family="Arial" letter-spacing="1.8">GAME CAMERA CAPTURE LAB</text><text x="1730" y="963" font-size="14" fill="#71839A" font-weight="400" text-anchor="end" font-family="Arial">Pure vector, data-derived sampling figure</text></svg>
