<svg xmlns="http://www.w3.org/2000/svg" width="1600" height="900" viewBox="0 0 1600 900" role="img" aria-labelledby="title desc">
<title id="title">From camera plans to auditable capture datasets</title>
<desc id="desc">A dataset lifecycle showing point sets and trajectories, synchronized RGB-pose acquisition, and versioned output packages with provenance.</desc>

  <defs>
    <linearGradient id="dark-bg" x1="0" y1="0" x2="1" y2="1">
      <stop offset="0" stop-color="#07101F"/>
      <stop offset="1" stop-color="#122744"/>
    </linearGradient>
    <linearGradient id="blue-panel" x1="0" y1="0" x2="1" y2="1">
      <stop offset="0" stop-color="#0B7494"/>
      <stop offset="1" stop-color="#17B6D3"/>
    </linearGradient>
    <linearGradient id="violet-panel" x1="0" y1="0" x2="1" y2="1">
      <stop offset="0" stop-color="#5D4ACB"/>
      <stop offset="1" stop-color="#8776EC"/>
    </linearGradient>
    <linearGradient id="warm-panel" x1="0" y1="0" x2="1" y2="1">
      <stop offset="0" stop-color="#E88236"/>
      <stop offset="1" stop-color="#F4B15D"/>
    </linearGradient>
    <marker id="arrow" markerWidth="10" markerHeight="10" refX="8" refY="5" orient="auto" markerUnits="strokeWidth">
      <path d="M 0 0 L 10 5 L 0 10 z" fill="#169BB8"/>
    </marker>
    <marker id="arrow-light" markerWidth="10" markerHeight="10" refX="8" refY="5" orient="auto" markerUnits="strokeWidth">
      <path d="M 0 0 L 10 5 L 0 10 z" fill="#7DE8FA"/>
    </marker>
    <marker id="arrow-gray" markerWidth="10" markerHeight="10" refX="8" refY="5" orient="auto" markerUnits="strokeWidth">
      <path d="M 0 0 L 10 5 L 0 10 z" fill="#6D829A"/>
    </marker>
    <marker id="arrow-red" markerWidth="8" markerHeight="8" refX="7" refY="4" orient="auto">
      <path d="M 0 0 L 8 4 L 0 8 z" fill="#EF4444"/>
    </marker>
    <marker id="arrow-green" markerWidth="8" markerHeight="8" refX="7" refY="4" orient="auto">
      <path d="M 0 0 L 8 4 L 0 8 z" fill="#22C55E"/>
    </marker>
    <marker id="arrow-blue-small" markerWidth="8" markerHeight="8" refX="7" refY="4" orient="auto">
      <path d="M 0 0 L 8 4 L 0 8 z" fill="#2563EB"/>
    </marker>
    <pattern id="dot-grid" width="24" height="24" patternUnits="userSpaceOnUse">
      <circle cx="2" cy="2" r="1.5" fill="#70BFD0" opacity="0.22"/>
    </pattern>
  </defs>
<rect width="1600" height="900" fill="#F8FAFC"/>
<text x="70" y="70" font-size="18" fill="#087EA4" font-weight="700" text-anchor="start" font-family="Times New Roman" letter-spacing="2.5">FIGURE 06 / DATASET GENERATION</text><text x="70" y="116" font-size="40" fill="#10233F" font-weight="700" text-anchor="start" font-family="Times New Roman">From Camera Plans to Auditable Capture Datasets</text><text x="70" y="151" font-size="21" fill="#556A86" font-weight="400" text-anchor="start" font-family="Times New Roman">Still scans and trajectories share synchronized RGB, measured pose metadata, and explicit provenance.</text><line x1="70" y1="174" x2="1530" y2="174" stroke="#D4DEE9" stroke-width="1" fill="none"/><rect x="70" y="215" width="450" height="56" rx="13" fill="#EAF7FB" stroke="#CAD8E4" stroke-width="1.2"/><circle cx="100" cy="243" r="17" fill="#0D7D97" stroke="none" stroke-width="1"/><text x="100" y="249" font-size="17" fill="#FFFFFF" font-weight="700" text-anchor="middle" font-family="Times New Roman">1</text><text x="131" y="250" font-size="18" fill="#0D7D97" font-weight="700" text-anchor="start" font-family="Times New Roman" letter-spacing="1.3">CAPTURE PLANS</text><rect x="575" y="215" width="450" height="56" rx="13" fill="#F1EEFF" stroke="#CAD8E4" stroke-width="1.2"/><circle cx="605" cy="243" r="17" fill="#6655B5" stroke="none" stroke-width="1"/><text x="605" y="249" font-size="17" fill="#FFFFFF" font-weight="700" text-anchor="middle" font-family="Times New Roman">2</text><text x="636" y="250" font-size="18" fill="#6655B5" font-weight="700" text-anchor="start" font-family="Times New Roman" letter-spacing="1.3">SYNCHRONIZED ACQUISITION</text><rect x="1080" y="215" width="450" height="56" rx="13" fill="#FFF3E7" stroke="#CAD8E4" stroke-width="1.2"/><circle cx="1110" cy="243" r="17" fill="#B96A21" stroke="none" stroke-width="1"/><text x="1110" y="249" font-size="17" fill="#FFFFFF" font-weight="700" text-anchor="middle" font-family="Times New Roman">3</text><text x="1141" y="250" font-size="18" fill="#B96A21" font-weight="700" text-anchor="start" font-family="Times New Roman" letter-spacing="1.3">DATASET PRODUCTS</text><rect x="70" y="296" width="450" height="485" rx="18" fill="#FFFFFF" stroke="#CAD8E4" stroke-width="1.4"/><text x="96" y="335" font-size="24" fill="#18324F" font-weight="700" text-anchor="start" font-family="Times New Roman">Point-set plan</text><text x="96" y="365" font-size="16" fill="#37819A" font-weight="400" text-anchor="start" font-family="Consolas">camera-point-set/v1</text><rect x="96" y="390" width="398" height="136" rx="12" fill="#EAF6F9" stroke="#B8D8E2" stroke-width="1.1"/><path d="M 130 483 C 170 421 232 488 293 420 S 420 438 464 486" fill="none" stroke="#42A7BC" stroke-width="2" stroke-dasharray="6 5"/><circle cx="130" cy="483" r="7" fill="#1595AF" stroke="#FFFFFF" stroke-width="2"/><g transform="translate(130 464) rotate(-12) scale(0.26)" opacity="0.8"><rect x="-16" y="-11" width="32" height="22" rx="4" fill="none" stroke="#128BA5" stroke-width="2"/><circle cx="0" cy="0" r="5" fill="none" stroke="#128BA5" stroke-width="2"/><line x1="16" y1="-9" x2="58" y2="-30" stroke="#128BA5" stroke-width="2" fill="none"/><line x1="16" y1="9" x2="58" y2="30" stroke="#128BA5" stroke-width="2" fill="none"/><line x1="58" y1="-30" x2="58" y2="30" stroke="#128BA5" stroke-width="2" fill="none"/><line x1="16" y1="0" x2="58" y2="0" stroke="#128BA5" stroke-width="1" stroke-dasharray="5 5" opacity="0.65" fill="none"/><line x1="-18" y1="13" x2="6" y2="13" stroke="#F24B4B" stroke-width="2" fill="none"/><line x1="-18" y1="13" x2="-18" y2="-11" stroke="#22C55E" stroke-width="2" fill="none"/><line x1="-18" y1="13" x2="-31" y2="25" stroke="#2B79FF" stroke-width="2" fill="none"/></g><circle cx="176" cy="438" r="7" fill="#1595AF" stroke="#FFFFFF" stroke-width="2"/><g transform="translate(176 419) rotate(-12) scale(0.26)" opacity="0.8"><rect x="-16" y="-11" width="32" height="22" rx="4" fill="none" stroke="#128BA5" stroke-width="2"/><circle cx="0" cy="0" r="5" fill="none" stroke="#128BA5" stroke-width="2"/><line x1="16" y1="-9" x2="58" y2="-30" stroke="#128BA5" stroke-width="2" fill="none"/><line x1="16" y1="9" x2="58" y2="30" stroke="#128BA5" stroke-width="2" fill="none"/><line x1="58" y1="-30" x2="58" y2="30" stroke="#128BA5" stroke-width="2" fill="none"/><line x1="16" y1="0" x2="58" y2="0" stroke="#128BA5" stroke-width="1" stroke-dasharray="5 5" opacity="0.65" fill="none"/><line x1="-18" y1="13" x2="6" y2="13" stroke="#F24B4B" stroke-width="2" fill="none"/><line x1="-18" y1="13" x2="-18" y2="-11" stroke="#22C55E" stroke-width="2" fill="none"/><line x1="-18" y1="13" x2="-31" y2="25" stroke="#2B79FF" stroke-width="2" fill="none"/></g><circle cx="236" cy="464" r="7" fill="#1595AF" stroke="#FFFFFF" stroke-width="2"/><g transform="translate(236 445) rotate(-12) scale(0.26)" opacity="0.8"><rect x="-16" y="-11" width="32" height="22" rx="4" fill="none" stroke="#128BA5" stroke-width="2"/><circle cx="0" cy="0" r="5" fill="none" stroke="#128BA5" stroke-width="2"/><line x1="16" y1="-9" x2="58" y2="-30" stroke="#128BA5" stroke-width="2" fill="none"/><line x1="16" y1="9" x2="58" y2="30" stroke="#128BA5" stroke-width="2" fill="none"/><line x1="58" y1="-30" x2="58" y2="30" stroke="#128BA5" stroke-width="2" fill="none"/><line x1="16" y1="0" x2="58" y2="0" stroke="#128BA5" stroke-width="1" stroke-dasharray="5 5" opacity="0.65" fill="none"/><line x1="-18" y1="13" x2="6" y2="13" stroke="#F24B4B" stroke-width="2" fill="none"/><line x1="-18" y1="13" x2="-18" y2="-11" stroke="#22C55E" stroke-width="2" fill="none"/><line x1="-18" y1="13" x2="-31" y2="25" stroke="#2B79FF" stroke-width="2" fill="none"/></g><circle cx="293" cy="420" r="7" fill="#1595AF" stroke="#FFFFFF" stroke-width="2"/><g transform="translate(293 401) rotate(-12) scale(0.26)" opacity="0.8"><rect x="-16" y="-11" width="32" height="22" rx="4" fill="none" stroke="#128BA5" stroke-width="2"/><circle cx="0" cy="0" r="5" fill="none" stroke="#128BA5" stroke-width="2"/><line x1="16" y1="-9" x2="58" y2="-30" stroke="#128BA5" stroke-width="2" fill="none"/><line x1="16" y1="9" x2="58" y2="30" stroke="#128BA5" stroke-width="2" fill="none"/><line x1="58" y1="-30" x2="58" y2="30" stroke="#128BA5" stroke-width="2" fill="none"/><line x1="16" y1="0" x2="58" y2="0" stroke="#128BA5" stroke-width="1" stroke-dasharray="5 5" opacity="0.65" fill="none"/><line x1="-18" y1="13" x2="6" y2="13" stroke="#F24B4B" stroke-width="2" fill="none"/><line x1="-18" y1="13" x2="-18" y2="-11" stroke="#22C55E" stroke-width="2" fill="none"/><line x1="-18" y1="13" x2="-31" y2="25" stroke="#2B79FF" stroke-width="2" fill="none"/></g><circle cx="348" cy="474" r="7" fill="#1595AF" stroke="#FFFFFF" stroke-width="2"/><g transform="translate(348 455) rotate(-12) scale(0.26)" opacity="0.8"><rect x="-16" y="-11" width="32" height="22" rx="4" fill="none" stroke="#128BA5" stroke-width="2"/><circle cx="0" cy="0" r="5" fill="none" stroke="#128BA5" stroke-width="2"/><line x1="16" y1="-9" x2="58" y2="-30" stroke="#128BA5" stroke-width="2" fill="none"/><line x1="16" y1="9" x2="58" y2="30" stroke="#128BA5" stroke-width="2" fill="none"/><line x1="58" y1="-30" x2="58" y2="30" stroke="#128BA5" stroke-width="2" fill="none"/><line x1="16" y1="0" x2="58" y2="0" stroke="#128BA5" stroke-width="1" stroke-dasharray="5 5" opacity="0.65" fill="none"/><line x1="-18" y1="13" x2="6" y2="13" stroke="#F24B4B" stroke-width="2" fill="none"/><line x1="-18" y1="13" x2="-18" y2="-11" stroke="#22C55E" stroke-width="2" fill="none"/><line x1="-18" y1="13" x2="-31" y2="25" stroke="#2B79FF" stroke-width="2" fill="none"/></g><circle cx="418" cy="434" r="7" fill="#1595AF" stroke="#FFFFFF" stroke-width="2"/><g transform="translate(418 415) rotate(-12) scale(0.26)" opacity="0.8"><rect x="-16" y="-11" width="32" height="22" rx="4" fill="none" stroke="#128BA5" stroke-width="2"/><circle cx="0" cy="0" r="5" fill="none" stroke="#128BA5" stroke-width="2"/><line x1="16" y1="-9" x2="58" y2="-30" stroke="#128BA5" stroke-width="2" fill="none"/><line x1="16" y1="9" x2="58" y2="30" stroke="#128BA5" stroke-width="2" fill="none"/><line x1="58" y1="-30" x2="58" y2="30" stroke="#128BA5" stroke-width="2" fill="none"/><line x1="16" y1="0" x2="58" y2="0" stroke="#128BA5" stroke-width="1" stroke-dasharray="5 5" opacity="0.65" fill="none"/><line x1="-18" y1="13" x2="6" y2="13" stroke="#F24B4B" stroke-width="2" fill="none"/><line x1="-18" y1="13" x2="-18" y2="-11" stroke="#22C55E" stroke-width="2" fill="none"/><line x1="-18" y1="13" x2="-31" y2="25" stroke="#2B79FF" stroke-width="2" fill="none"/></g><circle cx="464" cy="486" r="7" fill="#1595AF" stroke="#FFFFFF" stroke-width="2"/><g transform="translate(464 467) rotate(-12) scale(0.26)" opacity="0.8"><rect x="-16" y="-11" width="32" height="22" rx="4" fill="none" stroke="#128BA5" stroke-width="2"/><circle cx="0" cy="0" r="5" fill="none" stroke="#128BA5" stroke-width="2"/><line x1="16" y1="-9" x2="58" y2="-30" stroke="#128BA5" stroke-width="2" fill="none"/><line x1="16" y1="9" x2="58" y2="30" stroke="#128BA5" stroke-width="2" fill="none"/><line x1="58" y1="-30" x2="58" y2="30" stroke="#128BA5" stroke-width="2" fill="none"/><line x1="16" y1="0" x2="58" y2="0" stroke="#128BA5" stroke-width="1" stroke-dasharray="5 5" opacity="0.65" fill="none"/><line x1="-18" y1="13" x2="6" y2="13" stroke="#F24B4B" stroke-width="2" fill="none"/><line x1="-18" y1="13" x2="-18" y2="-11" stroke="#22C55E" stroke-width="2" fill="none"/><line x1="-18" y1="13" x2="-31" y2="25" stroke="#2B79FF" stroke-width="2" fill="none"/></g><line x1="96" y1="554" x2="494" y2="554" stroke="#D7E1EA" stroke-width="1" fill="none"/><text x="96" y="590" font-size="24" fill="#18324F" font-weight="700" text-anchor="start" font-family="Times New Roman">Trajectory plan</text><text x="96" y="620" font-size="16" fill="#6C58B8" font-weight="400" text-anchor="start" font-family="Consolas">camera-trajectory/v1</text><rect x="96" y="645" width="398" height="108" rx="12" fill="#F2EFFF" stroke="#D0C7EE" stroke-width="1.1"/><path d="M 122 714 C 178 654 234 738 298 682 S 407 662 470 701" fill="none" stroke="#7562CE" stroke-width="4"/><circle cx="122" cy="714" r="7" fill="#7562CE" stroke="#FFFFFF" stroke-width="2"/><text x="122" y="739" font-size="13" fill="#6B5D8C" font-weight="400" text-anchor="middle" font-family="Times New Roman" font-style="italic">t0</text><circle cx="234" cy="707" r="7" fill="#7562CE" stroke="#FFFFFF" stroke-width="2"/><text x="234" y="732" font-size="13" fill="#6B5D8C" font-weight="400" text-anchor="middle" font-family="Times New Roman" font-style="italic">t1</text><circle cx="342" cy="668" r="7" fill="#7562CE" stroke="#FFFFFF" stroke-width="2"/><text x="342" y="693" font-size="13" fill="#6B5D8C" font-weight="400" text-anchor="middle" font-family="Times New Roman" font-style="italic">t2</text><circle cx="470" cy="701" r="7" fill="#7562CE" stroke="#FFFFFF" stroke-width="2"/><text x="470" y="726" font-size="13" fill="#6B5D8C" font-weight="400" text-anchor="middle" font-family="Times New Roman" font-style="italic">tK</text><line x1="520" y1="527" x2="559" y2="527" stroke="#169BB8" stroke-width="4" marker-end="url(#arrow)" fill="none"/><line x1="1025" y1="527" x2="1064" y2="527" stroke="#169BB8" stroke-width="4" marker-end="url(#arrow)" fill="none"/><rect x="575" y="296" width="450" height="485" rx="18" fill="#FFFFFF" stroke="#CAD8E4" stroke-width="1.4"/><text x="601" y="335" font-size="24" fill="#18324F" font-weight="700" text-anchor="start" font-family="Times New Roman">In-game camera</text><rect x="601" y="363" width="398" height="164" rx="12" fill="#102A44" stroke="#385B78" stroke-width="1.2"/><polygon points="615,505 690,423 752,467 819,399 900,474 985,416 985,513 615,513" fill="#1B526C" stroke="#4D8BA2" stroke-width="1.4"/><circle cx="917" cy="403" r="24" fill="#F4B85E" stroke="none" stroke-width="1" opacity="0.9"/><g transform="translate(781 448) rotate(-7) scale(0.65)" opacity="1"><rect x="-16" y="-11" width="32" height="22" rx="4" fill="none" stroke="#78E2F3" stroke-width="2"/><circle cx="0" cy="0" r="5" fill="none" stroke="#78E2F3" stroke-width="2"/><line x1="16" y1="-9" x2="58" y2="-30" stroke="#78E2F3" stroke-width="2" fill="none"/><line x1="16" y1="9" x2="58" y2="30" stroke="#78E2F3" stroke-width="2" fill="none"/><line x1="58" y1="-30" x2="58" y2="30" stroke="#78E2F3" stroke-width="2" fill="none"/><line x1="16" y1="0" x2="58" y2="0" stroke="#78E2F3" stroke-width="1" stroke-dasharray="5 5" opacity="0.65" fill="none"/><line x1="-18" y1="13" x2="6" y2="13" stroke="#F24B4B" stroke-width="2" fill="none"/><line x1="-18" y1="13" x2="-18" y2="-11" stroke="#22C55E" stroke-width="2" fill="none"/><line x1="-18" y1="13" x2="-31" y2="25" stroke="#2B79FF" stroke-width="2" fill="none"/></g><text x="619" y="389" font-size="15" fill="#BDEBF3" font-weight="700" text-anchor="start" font-family="Times New Roman">RGB frame</text><line x1="601" y1="554" x2="999" y2="554" stroke="#D7E1EA" stroke-width="1" fill="none"/><rect x="601" y="578" width="398" height="45" rx="9" fill="#EAF7FB" stroke="#D0DCE6" stroke-width="1"/><circle cx="621" cy="600.5" r="7" fill="#0D819B" stroke="none" stroke-width="1"/><text x="640" y="598" font-size="17" fill="#18324F" font-weight="700" text-anchor="start" font-family="Times New Roman">RGB stream</text><text x="982" y="598" font-size="14" fill="#0D819B" font-weight="400" text-anchor="end" font-family="Consolas">frame_000123.png</text><line x1="800" y1="623" x2="800" y2="633" stroke="#7A8FA4" stroke-width="1.5" stroke-dasharray="3 3" fill="none"/><rect x="601" y="635" width="398" height="45" rx="9" fill="#F1EEFF" stroke="#D0DCE6" stroke-width="1"/><circle cx="621" cy="657.5" r="7" fill="#6655B5" stroke="none" stroke-width="1"/><text x="640" y="655" font-size="17" fill="#18324F" font-weight="700" text-anchor="start" font-family="Times New Roman">Pose stream</text><text x="982" y="655" font-size="14" fill="#6655B5" font-weight="400" text-anchor="end" font-family="Consolas">x y z  |  yaw pitch roll</text><line x1="800" y1="680" x2="800" y2="690" stroke="#7A8FA4" stroke-width="1.5" stroke-dasharray="3 3" fill="none"/><rect x="601" y="692" width="398" height="45" rx="9" fill="#FFF3E7" stroke="#D0DCE6" stroke-width="1"/><circle cx="621" cy="714.5" r="7" fill="#B96A21" stroke="none" stroke-width="1"/><text x="640" y="712" font-size="17" fill="#18324F" font-weight="700" text-anchor="start" font-family="Times New Roman">Clock stream</text><text x="982" y="712" font-size="14" fill="#B96A21" font-weight="400" text-anchor="end" font-family="Consolas">timestamp + frame index</text><rect x="601" y="750" width="398" height="1" rx="0" fill="#D7E1EA" stroke="none" stroke-width="1"/><text x="800" y="770" font-size="15" fill="#63788F" font-weight="400" text-anchor="middle" font-family="Times New Roman" font-style="italic">align by timestamp, retain measured pose</text><rect x="1080" y="296" width="450" height="485" rx="18" fill="#FFFFFF" stroke="#CAD8E4" stroke-width="1.4"/><text x="1106" y="335" font-size="24" fill="#18324F" font-weight="700" text-anchor="start" font-family="Times New Roman">Dataset package</text><text x="1106" y="365" font-size="17" fill="#6D8197" font-weight="400" text-anchor="start" font-family="Times New Roman">portable, versioned, auditable</text><rect x="1106" y="392" width="112" height="78" rx="6" fill="#EAF0F4" stroke="#C8D6E0" stroke-width="1"/><polygon points="1111,462 1141,430 1164,447 1188,418 1213,462" fill="#39677D" stroke="none" stroke-width="1"/><circle cx="1197" cy="410" r="9" fill="#F0BB69" stroke="none" stroke-width="1"/><text x="1114" y="410" font-size="12" fill="#314D64" font-weight="700" text-anchor="start" font-family="Consolas">001</text><rect x="1234" y="392" width="112" height="78" rx="6" fill="#EAF0F4" stroke="#C8D6E0" stroke-width="1"/><polygon points="1239,462 1269,430 1292,447 1316,418 1341,462" fill="#9B7546" stroke="none" stroke-width="1"/><circle cx="1325" cy="410" r="9" fill="#F0BB69" stroke="none" stroke-width="1"/><text x="1242" y="410" font-size="12" fill="#314D64" font-weight="700" text-anchor="start" font-family="Consolas">002</text><rect x="1362" y="392" width="112" height="78" rx="6" fill="#EAF0F4" stroke="#C8D6E0" stroke-width="1"/><polygon points="1367,462 1397,430 1420,447 1444,418 1469,462" fill="#496F58" stroke="none" stroke-width="1"/><circle cx="1453" cy="410" r="9" fill="#F0BB69" stroke="none" stroke-width="1"/><text x="1370" y="410" font-size="12" fill="#314D64" font-weight="700" text-anchor="start" font-family="Consolas">003</text><rect x="1106" y="486" width="112" height="78" rx="6" fill="#EAF0F4" stroke="#C8D6E0" stroke-width="1"/><polygon points="1111,556 1141,524 1164,541 1188,512 1213,556" fill="#4D506E" stroke="none" stroke-width="1"/><circle cx="1197" cy="504" r="9" fill="#F0BB69" stroke="none" stroke-width="1"/><text x="1114" y="504" font-size="12" fill="#314D64" font-weight="700" text-anchor="start" font-family="Consolas">004</text><rect x="1234" y="486" width="112" height="78" rx="6" fill="#EAF0F4" stroke="#C8D6E0" stroke-width="1"/><polygon points="1239,556 1269,524 1292,541 1316,512 1341,556" fill="#8A5D4E" stroke="none" stroke-width="1"/><circle cx="1325" cy="504" r="9" fill="#F0BB69" stroke="none" stroke-width="1"/><text x="1242" y="504" font-size="12" fill="#314D64" font-weight="700" text-anchor="start" font-family="Consolas">005</text><rect x="1362" y="486" width="112" height="78" rx="6" fill="#EAF0F4" stroke="#C8D6E0" stroke-width="1"/><polygon points="1367,556 1397,524 1420,541 1444,512 1469,556" fill="#376C82" stroke="none" stroke-width="1"/><circle cx="1453" cy="504" r="9" fill="#F0BB69" stroke="none" stroke-width="1"/><text x="1370" y="504" font-size="12" fill="#314D64" font-weight="700" text-anchor="start" font-family="Consolas">006</text><line x1="1106" y1="593" x2="1504" y2="593" stroke="#D7E1EA" stroke-width="1" fill="none"/><text x="1106" y="625" font-size="17" fill="#B06725" font-weight="700" text-anchor="start" font-family="Consolas">scene_id/</text><text x="1134" y="655" font-size="16" fill="#506B82" font-weight="400" text-anchor="start" font-family="Consolas">frames/</text><text x="1134" y="682" font-size="16" fill="#506B82" font-weight="400" text-anchor="start" font-family="Consolas">poses.jsonl</text><text x="1134" y="709" font-size="16" fill="#506B82" font-weight="400" text-anchor="start" font-family="Consolas">trajectory.json</text><text x="1134" y="736" font-size="16" fill="#506B82" font-weight="400" text-anchor="start" font-family="Consolas">manifest.json</text><line x1="1270" y1="642" x2="1270" y2="746" stroke="#D7E1EA" stroke-width="1" fill="none"/><text x="1293" y="626" font-size="18" fill="#18324F" font-weight="700" text-anchor="start" font-family="Times New Roman">Provenance</text><text x="1293" y="655" font-size="15" fill="#687D92" font-weight="400" text-anchor="start" font-family="Consolas">game_id</text><text x="1293" y="682" font-size="15" fill="#687D92" font-weight="400" text-anchor="start" font-family="Consolas">coordinate_system</text><text x="1293" y="709" font-size="15" fill="#687D92" font-weight="400" text-anchor="start" font-family="Consolas">schema_version</text><text x="1293" y="736" font-size="15" fill="#687D92" font-weight="400" text-anchor="start" font-family="Consolas">capture_time</text><line x1="70" y1="846" x2="1530" y2="846" stroke="#D7E1EC" stroke-width="1" fill="none"/><text x="70" y="875" font-size="14" fill="#657B95" font-weight="700" text-anchor="start" font-family="Times New Roman" letter-spacing="2">GAME CAMERA CAPTURE LAB</text><text x="1530" y="875" font-size="15" fill="#657B95" font-weight="400" text-anchor="end" font-family="Times New Roman">Synchronized dataset lifecycle</text>
</svg>
